# xmcd
#
# Track frame offsets: 
#        150
#        17916
#        30784
#        41701
#        59326
#        74902
#        92620
#        104428
#        129214
#        151459
#        184854
#        201453
#        227328
#        240128
#        263323
#
# Disc length: 3665 seconds
#
# Revision: 0
# Processed by: cddbd v1.5.2PL0 Copyright (c) Steve Scherf et al.
# Submitted via: ExactAudioCopy v1.0b3
#
DISCID=bc0e4f0f
DTITLE=The Rolling Stones - Rolling Stones Bluex Mix Disk 1
DYEAR=1900
DGENRE=Blues
TTITLE0=No Expectations
TTITLE1=Confessin' the Blues
TTITLE2=Cocaine
TTITLE3=I Got the Blues
TTITLE4=Cocksucker Blues
TTITLE5=I Just Wanna Make Love to You
TTITLE6=I'm a King Bee
TTITLE7=It Hurts Me Too
TTITLE8=Love in Vain (live)
TTITLE9=Sister Morphine (live)
TTITLE10=Still a Fool
TTITLE11=Wild Horses
TTITLE12=You Got the Silver
TTITLE13=Dream Girl Blues
TTITLE14=You Gotta Move
EXTD=
EXTT0=
EXTT1=
EXTT2=
EXTT3=
EXTT4=
EXTT5=
EXTT6=
EXTT7=
EXTT8=
EXTT9=
EXTT10=
EXTT11=
EXTT12=
EXTT13=
EXTT14=
PLAYORDER=
